<?xml version="1.0" encoding="UTF-8"?> <svg xmlns="http://www.w3.org/2000/svg" xmlns:xlink="http://www.w3.org/1999/xlink" width="450" height="443" viewBox="0 0 450 443"><defs><clipPath id="clip-ornament"><rect width="450" height="443"></rect></clipPath></defs><g id="ornament" clip-path="url(#clip-ornament)"><path id="Caminho_2" data-name="Caminho 2" d="M463.243,426.335c0-13.956.116-27.911-.1-41.867,0-3.571.99-4.464,4.522-4.639,57.375-2.95,103.609-39.79,118.4-94.253,19.623-71.544-28.416-146.194-101.454-157.762-70.593-11.161-134.645,34.472-146.8,104.715a74.827,74.827,0,0,0-1.4,16.246c.136,2.97-.718,4.193-3.882,4.173q-42.915-.146-85.81,0c-4.29,0-4.057-2.154-3.882-5.066,1.689-51.047,18.245-96.641,51.086-135.868C331.16,67.605,378.908,41.674,436.38,34.124,550.606,19.1,658.349,97.477,680.069,211.14A220.416,220.416,0,0,1,502.8,469.774a225.275,225.275,0,0,1-34.937,3.455c-3.688,0-4.5-1.087-4.464-4.581C463.36,454.6,463.243,440.465,463.243,426.335Z" transform="translate(478.229 -241.771) rotate(90)" fill="#78d200"></path></g></svg> 