<?xml version="1.0" encoding="UTF-8"?> <svg xmlns="http://www.w3.org/2000/svg" xmlns:xlink="http://www.w3.org/1999/xlink" width="400" height="400" viewBox="0 0 400 400"><defs><clipPath id="clip-ornament"><rect width="400" height="400"></rect></clipPath></defs><g id="ornament" clip-path="url(#clip-ornament)"><path id="Caminho_41" data-name="Caminho 41" d="M2623.071,2876.848a192.593,192.593,0,0,1-37.077-5.135,196.127,196.127,0,0,1-37.442-13.071,193.339,193.339,0,0,1-105.69-222.435,196.125,196.125,0,0,1,6.92-21.875,7.957,7.957,0,1,1,2.368.86,190.686,190.686,0,0,0-12.458,60.2,189.8,189.8,0,0,0,11.536,73.669,191.317,191.317,0,0,0,135.353,120.2,189.289,189.289,0,0,0,72.572,3.07,192.552,192.552,0,0,0,120.42-68.736,186.632,186.632,0,0,0,33.9-63.889,207.122,207.122,0,0,0,7.517-35.892,183.188,183.188,0,0,0-5.36-70.248,203.384,203.384,0,0,0-12.949-34.288,194.312,194.312,0,0,0-16.47-27.99,183.337,183.337,0,0,0-20.424-24.079,188.779,188.779,0,0,0-24.27-20.259,210.315,210.315,0,0,0-28.011-16.522l-.222-.11c-.969-.48-1.886-.934-2.356-.764-.208.075-.637.382-1.174,1.59-10.1,22.717-20.457,45.7-30.79,68.315a2.877,2.877,0,0,0-.4,1.9c.14.348.681.71,1.609,1.078l.026.011a66.144,66.144,0,0,1,12.656,7.076,118.408,118.408,0,0,1,17.689,14.679,113.692,113.692,0,0,1,13.979,17.2,111.171,111.171,0,0,1,16.389,82.61,114.359,114.359,0,0,1-6.342,21.274,119.231,119.231,0,0,1-10.735,20.389,108.3,108.3,0,0,1-33.552,32.675,112.016,112.016,0,0,1-20.61,10.009,114.441,114.441,0,0,1-44.979,6.771,112.71,112.71,0,0,1-22.773-3.516,109.131,109.131,0,0,1-36.89-17.528,7.972,7.972,0,1,1,1.588-1.96,106.622,106.622,0,0,0,35.941,17.049,110.119,110.119,0,0,0,22.263,3.437,111.956,111.956,0,0,0,43.987-6.621,109.438,109.438,0,0,0,20.145-9.783,105.791,105.791,0,0,0,32.772-31.916,116.6,116.6,0,0,0,10.507-19.957,111.838,111.838,0,0,0,6.2-20.8,108.558,108.558,0,0,0-16.017-80.74,111.176,111.176,0,0,0-13.669-16.819,115.929,115.929,0,0,0-17.326-14.375l-.024-.018a63.7,63.7,0,0,0-12.171-6.807,4.955,4.955,0,0,1-3-2.474,5.042,5.042,0,0,1,.445-3.885c10.329-22.608,20.684-45.585,30.779-68.295a4.911,4.911,0,0,1,2.622-2.937c1.48-.534,2.929.183,4.331.875l.217.107a213.161,213.161,0,0,1,28.346,16.722,191.28,191.28,0,0,1,24.595,20.531,185.781,185.781,0,0,1,20.706,24.41,196.641,196.641,0,0,1,16.684,28.355,205.822,205.822,0,0,1,13.109,34.714,185.72,185.72,0,0,1,5.433,71.206,209.674,209.674,0,0,1-7.608,36.331,189.142,189.142,0,0,1-34.36,64.749,193.291,193.291,0,0,1-25.164,25.642,195.648,195.648,0,0,1-96.834,44,192.835,192.835,0,0,1-28.862,2.175Q2626.865,2877,2623.071,2876.848Z" transform="translate(2892 -2431) rotate(90)" fill="#008638"></path></g></svg> 